<?xml version="1.0" encoding="UTF-8"?>
<svg xmlns="http://www.w3.org/2000/svg" viewBox="0 0 526.4 45.9">
  <defs>
    <style>
      .cls-1 {
        fill: #2d4ea0;
        stroke-width: 0px;
      }
    </style>
  </defs>
  <g>
    <g>
      <path class="cls-1" d="M0,22.3c0-2.8.5-5.6,1.6-8.4.8-2,1.9-3.9,3.3-5.6,1.4-1.7,3.2-3.2,5.3-4.5,2.1-1.3,4.3-2.3,6.6-2.8,2.2-.6,4.7-.9,7.5-.9,4.7,0,8.8.9,12.2,2.6,3.4,1.8,6.2,4.1,8.1,7.1,2.6,3.9,3.9,8,3.9,12.3,0,6.4-2.2,11.9-6.5,16.4-4.3,4.6-10.4,6.8-18.1,6.8s-3.7-.1-5.4-.4c-1.3-.2-2.4-.4-3.3-.7-1.7-.6-2.7-.9-2.9-1-2.5-1.4-4.4-2.8-5.9-4.3-1.5-1.5-2.8-3.1-3.8-5-.6-1-1.2-2.9-1.9-5.6-.5-1.7-.7-3.8-.7-6.1ZM23,3.5c-2,0-3.7.5-5.2,1.4s-2.6,1.9-3.4,3c-1.3,1.9-2.2,3.9-2.7,6.1-.5,2.2-.8,4.9-.8,8.1s0,3.3.2,4.2c0,.3.1.7.2,1.4.2,1.7.4,2.9.7,3.7,1,2.9,1.7,4.6,2.1,5.3.7,1.2,1.7,2.3,3,3.4.7.6,1.7,1.1,2.9,1.6,1.3.5,2.6.7,3.9.7,2.4,0,4.7-.6,6.8-1.7s3.8-3.1,5-5.8c1.3-2.7,1.9-6.3,1.9-10.7s-.1-4.3-.4-7.3l-.2-.6c0-.2-.2-.6-.3-1.4-.8-3.7-2.4-6.5-4.8-8.5s-5.3-2.9-8.9-2.9Z"/>
      <path class="cls-1" d="M93.8,1.7c.3.7.9,2.6,1.8,5.8.4,1.4.6,3,.6,4.6h-3.1c-2.2-3.1-4.4-5.3-6.7-6.6-2.3-1.3-4.9-2-7.7-2s-6.3,1.4-8.5,4.1c-2.9,3.7-4.4,8.9-4.4,15.5s.2,6.6.7,8.2c.8,2.6,1.8,4.8,3.1,6.5.9,1.3,2.2,2.3,3.7,3,2,1,4.1,1.5,6.4,1.5s4.9-.8,7.2-2.3c2.3-1.5,4.5-3.8,6.6-6.9.8-.2,1.9-.2,3.3-.3,0,.9-.2,1.7-.4,2.7,0,.4-.3,1.8-.8,4.3l-.3,1-.5,1.6c-1.4,1.1-3.3,1.9-5.8,2.4-2.5.5-5.6.8-9.2.8s-5.4-.3-7.9-.8c-2.5-.5-4.6-1.3-6.3-2.5-2.6-1.6-4.6-3.4-6.1-5.3-1.5-1.9-2.6-4-3.3-6.2-.7-2.2-1.1-4.7-1.1-7.5,0-6.7,2.2-12.3,6.6-16.6,4.4-4.4,10.1-6.6,17-6.6s5.4.1,7.9.4c2.5.3,4.8.7,6.9,1.3Z"/>
      <path class="cls-1" d="M101.7,1c1.3,0,2.4.2,3.3.3,1.8.2,3.8.4,6.2.4s2.9,0,6.3-.2c5-.2,9.6-.3,13.6-.3h6.1c1.4,0,3.4.1,6.1.4.4.5.6,1.1.6,1.8v8.4c0,.1,0,.3,0,.6h-1.4c-.2,0-.6,0-1.2,0-.2-.5-.5-1.1-.8-2l-1.4-2.4c-.5-1-1.2-2.1-2.2-3.1-.6-.2-1.3-.2-2.2-.3-.2,0-.9,0-2.1-.2-2.1-.2-4.4-.3-6.8-.3s-5.2,0-7.4.1c0,.6-.1,2.8-.1,6.7v5.7s0,4.3,0,4.3c.6,0,1.1.1,1.5.1,4,0,6.9,0,8.6-.2,1.7-.2,2.8-.4,3.2-.7.4-.3.8-.8,1.1-1.5.2-.5.6-2.2,1.2-5h.4s2,0,2,0c0,2,.1,3.5.1,4.6,0,2.4,0,3.9,0,4.6,0,.7,0,1.2,0,1.6,0,.6,0,1.6.1,2.9,0,1.3.1,2.3.1,3v.7h-2.4c0-.4-.3-1.1-.5-2.2-.5-2.1-.9-3.4-1.2-3.9-.3-.4-.7-.7-1.4-.9-.5-.2-2.1-.2-5-.2s-6,0-7.7.3v1.2c0,2.7,0,4.9.1,6.7v7.3c0,.9.2,1.4.8,1.8.9.5,3.8.7,8.5.7s5.8-.2,8-.7c1.5-.3,2.8-1.1,4-2.3,1.5-1.5,2.8-3.6,3.8-6.4.7,0,1.3-.1,1.7-.1s.6,0,1.1,0c0,.6-.1,1-.2,1.4l-.2,1-1.2,6.4-.6,3.9c-1.5,0-2.6.1-3.5.1-1.3,0-4.6-.1-10.1-.3-3.9-.2-8.5-.2-14-.2s-6,.1-10,.3h-5.5c0,.1,0-2.2,0-2.2.4-.1,1.3-.2,2.6-.4,2.3-.3,4-.6,4.9-1.1.2-.7.4-1.5.4-2.5s0-1,0-2v-1s0-12.8,0-12.8v-3.8s-.1-5.4-.1-5.4v-3.8s-.3-4.2-.3-4.2c0-.1,0-.3,0-.7-.2-.2-.6-.4-1-.5-.2,0-.6-.1-1-.2-1.3-.3-2.5-.4-3.7-.5-.4,0-.9,0-1.5-.1l.2-2.7Z"/>
      <path class="cls-1" d="M150.6,44.8v-2.3c.5-.1,1.3-.3,2.3-.5,1.7-.3,2.8-.6,3.2-.9.4-.3.8-.9,1.4-2l6.8-17.9L172.3.2h3.7l.3.6,5.9,13.9c1.3,3,2.5,5.8,3.6,8.6,1.1,2.8,2,5.1,2.7,6.8.5,1.1,1.1,2.7,1.9,4.8.4,1.2,1,2.6,1.9,4.3.5.9.8,1.5,1,1.7.4.3,1.1.6,2,.7s1.9.4,3,.8c.1.7.2,1.3.2,1.7s0,.4,0,.7c-1.7,0-3.5,0-5.5-.2-2-.2-3.8-.2-5.4-.2s-3.1,0-3.9,0l-5.8.3h-1.7c0-.7,0-1.5.1-2.2l3.8-.8c1.1-.3,1.8-.5,2-.7.2-.2.3-.5.3-.8s0-.6-.2-.9l-1.3-3.3-2.7-6.6h-12.9c-.5,1-1.5,3.7-3,7.9-.4,1.2-.6,2-.6,2.4s.2,1,.5,1.3c.5.4,1.5.7,3,.9.2,0,1,.2,2.4.4,0,.8,0,1.4,0,1.7s0,.5,0,.8c-1.4,0-4.7-.2-10-.6l-1.4.2c-1.7.3-3.3.4-4.8.4h-.6ZM166.5,25.7c5.3,0,8.4.1,9.3.1h.8c-.7-2-1.6-4.4-2.6-7.1-1.1-2.7-2-4.7-2.6-6.1l-4.9,13.1Z"/>
      <path class="cls-1" d="M201.1,3.7V1.3c-.1,0,2.7,0,2.7,0h1c1.4-.1,2.3-.1,2.8-.1s1.1,0,2.4,0c.3,0,.5,0,.7,0s.9,0,2.1,0c1.2,0,1.9,0,2.1,0,.2,0,.6,0,1,0,3.5,3.2,6.3,5.9,8.5,8.2,2.2,2.3,10.2,10.3,24,23.9v-4.8c-.2-2.3-.3-4.1-.4-5.5-.1-1.3-.2-2.9-.2-4.8,0-1.9-.1-3.5-.2-5.1-.3-3-.4-4.7-.4-5.1,0-1.5-.2-2.4-.5-2.7-.5-.5-1.6-.9-3.2-1.1-1.2-.2-2.2-.5-2.8-.8v-2s.9-.1.9-.1l6.7-.2,7.4-.2c.5,0,1,0,1.4,0v2.2c-.5.3-1,.5-1.6.6-1.4.3-2.3.6-2.5.7-1.2.7-1.8,1-1.9,1.2-.2.3-.3.7-.3,1.3s0,.6,0,1.4c0,.4,0,1.4,0,2.8,0,3.3.1,5.9.3,7.7,0,.6,0,1.3.1,2.1l.4,11.9c0,.8,0,1.4,0,1.8v5.9c.1,0,0,1.8,0,1.8,0,.9.1,1.5.1,1.7v1.8h-3.9c0,.1-4-4-4-4l-8.2-8.2-5.8-5.8-4.2-4.3c-2.8-2.7-5.3-5.1-7.5-7.1l-5.5-5,.3,12.6c0,.8,0,1.6,0,2.4v2.4s.2,4.4.2,4.4c0,1.8.2,3.9.4,6,0,.6.1,1,.2,1.2,0,.2.2.6.4,1,.9.3,2.8.6,5.8.7.2,0,.5.1.9.2v2.7c.1,0-1.2,0-1.2,0-.7,0-3-.2-6.8-.5-3.6,0-6,.1-7.2.2s-1.8.1-2,.1c-.3,0-.6,0-1.1-.1,0-.5,0-1,0-1.4s0-.7,0-1.2c.6-.1,1.2-.2,1.6-.2s.6,0,1.3,0c1.9,0,3-.1,3.4-.4.3-.3.5-1,.6-2.3.2-3.6.2-5.8.2-6.6v-12.9c0,0,0-6.9,0-6.9,0-2.6-.2-4.4-.5-5.4-.1-.5-.4-1-.8-1.4-.8-.8-1.7-1.4-2.6-1.8-.6-.2-2.1-.6-4.6-.9Z"/>
      <path class="cls-1" d="M323.7,3.8c.2.7.3,1.9.5,3.9s.3,3.3.3,4.2,0,.8-.2,1.3c-1,0-1.8-.1-2.5-.3-1.7-2.6-2.9-4.3-3.6-5-1.3-1.3-3-2.3-5-3.2-1.5-.7-3.2-1-5.2-1-3.8,0-7.1,1.7-9.9,5.1-2.9,3.4-4.3,8.4-4.3,15.1s.6,6.2,1.7,9.1c1.1,3,2.8,5.3,5,6.9,2.2,1.7,4.9,2.5,7.9,2.5s3-.2,4.7-.6c.8-.2,1.5-.5,2-1.1.4-.4.6-.9.7-1.6.2-1.3.3-3.2.3-5.6s0-3.9-.1-4.8c-.2-.3-.3-.6-.5-.7-.1-.1-.6-.3-1.4-.5l-3-.8c-.7-.2-1.1-.3-1.2-.6,0-.3,0-.5,0-.6,0-.3,0-.8.2-1.3.4-.1.7-.2.8-.2,2.5,0,4.6,0,6.4.2.6,0,1.3,0,2.1,0h5.3c0,0,2.3-.1,2.3-.1.3,0,1,0,2.3,0,0,.6,0,1.1,0,1.5s0,.5-.2.8c-.4.2-1,.5-2,.9-.9.3-1.4.6-1.6.7-.2.2-.3.5-.4.8s-.1,1.7-.1,4,0,4.2,0,4.8c0,1.7-.1,2.6-.1,2.8,0,.8-.1,1.4-.3,1.6-.6.6-2.6,1.3-5.9,2.1-3.3.8-7.1,1.2-11.5,1.2s-5.7-.2-7.9-.7c-2.2-.5-4.2-1.2-5.7-2.1-2.1-1.3-3.9-2.8-5.4-4.6-1.5-1.8-2.6-3.8-3.4-5.9-1-3-1.6-5.9-1.6-8.9s.8-6.7,2.3-10.1c1.1-2.5,2.7-4.7,4.8-6.6,2-2,4.6-3.5,7.7-4.7s6.4-1.8,10-1.8,1.2,0,2.2.2c2.8,0,5.3.3,7.7,1,2.4.7,4.4,1.5,6,2.5Z"/>
      <path class="cls-1" d="M333.1,42.7c.6-.3,1.5-.5,2.6-.7,1.2-.1,2.2-.4,3.1-.7.1-.5.2-.8.2-1,0-.3,0-1.4,0-3.2v-7.5s.1-4.1.1-4.1v-3.1c0,0,0-1.8,0-1.8,0-2.5.1-4.8.1-6.9,0-4.7,0-7.7-.2-9l-2-.4c-1.8-.1-3-.2-3.7-.3V1.8c0,0,0-.4,0-.4,1.1-.2,2.2-.3,3.1-.3s1.6,0,3.1,0c1.6.1,2.5.2,2.6.2h1.8c0-.1,4.2-.3,4.2-.3,2.6-.3,5.4-.4,8.4-.4,4.6,0,8.3,1.2,11,3.5,2.7,2.4,4.1,5.1,4.1,8.1s-.7,4.3-2.2,6.2-3.7,3.3-6.8,4.2c.3.5.6,1,1.1,1.7.9,1.4,1.7,2.5,2.3,3.5l5.4,8.8c1.4,2.3,2.2,3.7,2.7,4.1s1.3.8,2.6,1.3c1,.4,1.8.8,2.3,1.1.1.4.2.7.2,1s0,.5,0,.8h-1.6s-1.8-.2-1.8-.2h-1.4c-.7-.1-1.6-.2-2.7-.2h-3.4c-.2,0-1,0-2.4.2-.6,0-1.1.1-1.5.2l-1.2-2.2c-.9-1.7-1.6-3-2-3.8-1-2.2-2.7-5.7-5.1-10.5-1.1-2.2-1.9-3.5-2.4-3.8-.7-.5-1.8-.7-3.5-.7s-1.2,0-2.3,0c0,.7-.1,1.4-.1,2.3l.2,7.5-.2,6.4c.6.4,1.5.7,2.5.9,1.8.4,3.3.8,4.5,1.3,0,1.1,0,1.9-.1,2.5-.4,0-.7,0-.8,0h-1.4c-4.8-.4-7.7-.6-8.6-.6s-1,0-1.3,0l-4.7.3c-1.4.2-2.7.2-3.9.2h-1.5c0-.6,0-.9,0-1.1,0-.2,0-.6.1-1ZM348.4,20.8c1.1,0,1.9,0,2.4,0,3.8,0,6.6-.7,8.2-2.1,1.6-1.4,2.4-3.2,2.4-5.5s-.2-2.8-.6-4c-.4-1.3-.9-2.2-1.5-2.8-.8-.9-1.9-1.5-3.3-2-1-.3-2.6-.5-4.8-.5s-1.9,0-2.7.2v.6c0,0,0,4.6,0,4.6v2.8c-.1,0,0,3.7,0,3.7,0,1,0,2.4-.1,4v.9Z"/>
      <path class="cls-1" d="M380.7,22.3c0-2.8.5-5.6,1.6-8.4.8-2,1.9-3.9,3.3-5.6,1.4-1.7,3.2-3.2,5.3-4.5,2.1-1.3,4.3-2.3,6.6-2.8,2.2-.6,4.7-.9,7.5-.9,4.7,0,8.8.9,12.2,2.6,3.4,1.8,6.2,4.1,8.1,7.1,2.6,3.9,3.9,8,3.9,12.3,0,6.4-2.2,11.9-6.5,16.4-4.3,4.6-10.4,6.8-18.1,6.8s-3.7-.1-5.4-.4c-1.3-.2-2.4-.4-3.3-.7-1.7-.6-2.7-.9-2.9-1-2.5-1.4-4.4-2.8-5.9-4.3-1.5-1.5-2.8-3.1-3.8-5-.6-1-1.2-2.9-1.9-5.6-.5-1.7-.7-3.8-.7-6.1ZM403.8,3.5c-2,0-3.7.5-5.2,1.4-1.5.9-2.6,1.9-3.4,3-1.3,1.9-2.2,3.9-2.7,6.1-.5,2.2-.8,4.9-.8,8.1s0,3.3.2,4.2c0,.3.1.7.2,1.4.2,1.7.4,2.9.7,3.7,1,2.9,1.7,4.6,2.1,5.3.7,1.2,1.7,2.3,3,3.4.7.6,1.7,1.1,2.9,1.6,1.3.5,2.6.7,3.9.7,2.4,0,4.7-.6,6.8-1.7s3.8-3.1,5-5.8c1.3-2.7,1.9-6.3,1.9-10.7s-.1-4.3-.4-7.3l-.2-.6c0-.2-.2-.6-.3-1.4-.8-3.7-2.4-6.5-4.8-8.5-2.4-1.9-5.3-2.9-8.9-2.9Z"/>
      <path class="cls-1" d="M432.8,3.8V1.2c.3,0,.7,0,1.2,0,1.1,0,2.3,0,3.6.1,3,.2,4.7.2,5.3.2,1.8,0,3.6,0,5.3-.1,1.7,0,3.3-.1,4.6-.1s2.3,0,2.7,0v.4s0,2,0,2v.3c-1.3.2-2.6.3-3.9.3s-2.1.2-2.5.7c-.3.3-.4,1.7-.4,4s0,1.3,0,1.8v1.2s0,3.2,0,3.2l.2,2.7v5.9c-.1,0,.3,8.5.3,8.5.1,2.5.7,4.5,1.6,6.1.7,1.2,1.7,2.1,3,2.8,1.9.9,3.8,1.4,5.6,1.4s4.2-.3,6.1-.8c1.1-.3,2.1-.8,3.1-1.5s1.7-1.4,2-1.9c.8-1.2,1.4-2.4,1.7-3.5.4-1.5.6-3.8.6-6.9,0-5.5-.3-11.6-.9-18.4v-1.8c-.2-1.3-.5-2.2-.9-2.7-.7-.7-1.5-1-2.4-1h-3.2c0,0-.4,0-.4,0V1h2.7l6.5.3c2.2,0,4.2-.1,6.2-.3h.6c.1.8.2,1.3.2,1.6s0,.6-.1.9c-.8.2-1.7.4-2.6.4-1.5.2-2.3.4-2.5.5-.3.3-.5.7-.5,1.3s0,1,.1,1.8c0,.6.1,1.5.1,2.9s0,1.4,0,1.9,0,.9,0,1.4c0,1.6.1,3.3.2,4.9l.3,6.9c0,4.6-.2,7.7-.5,9.2-.3,1.6-.7,2.8-1.3,3.7-.8,1.4-2,2.6-3.6,3.7-1.5,1.1-3.5,2-5.8,2.7-2.3.7-5,1-8.1,1s-6.5-.5-9-1.4-4.4-2.2-5.7-3.7c-1.3-1.5-2.1-3.5-2.6-5.9-.3-1.7-.5-4.1-.5-7.2V11.6c0-3.8-.2-6-.5-6.5-.5-.7-2-1.1-4.6-1.2-.6,0-1,0-1.4-.1Z"/>
      <path class="cls-1" d="M487.4,3.2V.7s8.1.5,8.1.5h3.6s1.3,0,1.3,0c1.4,0,3.5,0,6.5-.2,1.7-.1,2.7-.2,3.1-.2,2.8,0,5,.2,6.4.5,2.2.5,4,1.2,5.3,2.2s2.4,2.4,3.3,4.2c.9,1.8,1.4,3.5,1.4,5.1,0,3.9-1.2,7.1-3.7,9.6-2.5,2.4-5.6,3.7-9.4,3.7s-2.6-.2-3.7-.5c-1.2-.3-2.3-.8-3.3-1.4-.1-.7-.2-1.6-.2-2.7.5,0,1,0,1.5.1s.8,0,1.2,0c1.9,0,3.5-.5,4.8-1.6,1.7-1.4,2.6-3.6,2.6-6.7s-.4-4-1.1-5.4-1.7-2.4-2.7-2.9c-1.4-.7-3.1-1-4.9-1s-2.9.2-3.6.7c-.2.3-.3.6-.4.8l.2,15.9v1.4c0,0,0,1.4,0,1.4,0,.3,0,.8,0,1.4v7.2s0,5.3,0,5.3c0,.7,0,1.8.2,3l6.7.8c0,.5.1,1,.1,1.3s0,.8-.2,1.4c-.6,0-1,.1-1.3.1-.7,0-2,0-4-.3-1.9-.2-4.2-.3-6.6-.3s-5.5.2-8,.5c-.4,0-1.1.1-2,.2,0-.7-.1-1.1-.1-1.5s0-.5,0-.9l2.1-.7c1.4-.4,2.7-.9,3.7-1.6.2-.7.3-1.3.3-1.8s0-.5,0-.8c0-.7,0-1.7,0-2.9v-9.5c-.1,0-.5-10.7-.5-10.7-.2-5.1-.3-7.8-.4-8.3-.2-.7-.4-1.2-.8-1.5s-1-.6-1.9-.8c-1.9-.3-3.1-.6-3.7-.8Z"/>
    </g>
  </g>
</svg>