<svg width="82" height="73" viewBox="0 0 82 73" fill="none" xmlns="http://www.w3.org/2000/svg">
<path d="M61.257 0C55.8415 0 50.6479 2.15129 46.8186 5.98059C42.9893 9.8099 40.838 15.0036 40.838 20.419C40.838 15.0036 38.6867 9.8099 34.8574 5.98059C31.0281 2.15129 25.8345 0 20.419 0C15.0036 0 9.8099 2.15129 5.98059 5.98059C2.15129 9.8099 1.61393e-07 15.0036 0 20.419C0 33.219 7.014 42.419 15.311 49.634C25.285 58.311 37.111 64.128 40.838 69.909C44.562 64.127 56.39 58.309 66.365 49.634C74.665 42.416 81.676 33.22 81.676 20.419C81.676 15.0036 79.5247 9.8099 75.6954 5.98059C71.8661 2.15129 66.6725 0 61.257 0Z" fill="#F4BABF"/>
<path d="M28.679 31.145C24.14 26.607 14.004 25.781 11.606 35.553C8.55799 47.97 21.206 72.482 21.206 72.482H28.906V42.012C28.906 42.012 36.061 47.721 39.099 49.773C39.3873 50.0027 39.721 50.1688 40.0781 50.2603C40.4352 50.3519 40.8077 50.3668 41.171 50.3041C41.5343 50.2413 41.8802 50.1024 42.1859 49.8964C42.4917 49.6905 42.7504 49.4221 42.945 49.109C43.2922 48.5164 43.4295 47.824 43.3346 47.1437C43.2397 46.4634 42.9182 45.835 42.422 45.36C40.513 43.452 32.787 35.253 28.679 31.145Z" fill="#00521D"/>
<path d="M20.53 25.406C25.2382 25.406 29.055 21.5892 29.055 16.881C29.055 12.1728 25.2382 8.35602 20.53 8.35602C15.8218 8.35602 12.005 12.1728 12.005 16.881C12.005 21.5892 15.8218 25.406 20.53 25.406Z" fill="#00521D"/>
<path d="M52.986 31.145C57.525 26.607 67.66 25.781 70.059 35.553C73.107 47.97 60.459 72.482 60.459 72.482H52.759V42.012C52.759 42.012 45.603 47.721 42.566 49.773C42.2776 50.0027 41.9439 50.1688 41.5868 50.2603C41.2297 50.3519 40.8573 50.3668 40.494 50.3041C40.1307 50.2413 39.7848 50.1024 39.479 49.8964C39.1733 49.6905 38.9146 49.4221 38.72 49.109C38.3725 48.5164 38.2351 47.824 38.3301 47.1436C38.425 46.4633 38.7466 45.8349 39.243 45.36C41.157 43.452 48.886 35.253 52.986 31.145Z" fill="#4CA223"/>
<path d="M61.14 25.406C65.8482 25.406 69.665 21.5892 69.665 16.881C69.665 12.1728 65.8482 8.35602 61.14 8.35602C56.4318 8.35602 52.615 12.1728 52.615 16.881C52.615 21.5892 56.4318 25.406 61.14 25.406Z" fill="#4CA223"/>
</svg>
