<svg width="293" height="63" viewBox="0 0 293 63" fill="none" xmlns="http://www.w3.org/2000/svg">
<path d="M21.3285 10.1675C21.4966 10.1731 21.6617 10.2136 21.8133 10.2865C21.9649 10.3594 22.0997 10.4632 22.209 10.591C22.3183 10.7189 22.3998 10.8681 22.4482 11.0292C22.4967 11.1903 22.511 11.3597 22.4904 11.5267C22.5091 11.6933 22.4933 11.8619 22.4441 12.0222C22.3949 12.1825 22.3133 12.3309 22.2044 12.4584C22.0954 12.5858 21.9615 12.6895 21.8108 12.7631C21.6601 12.8366 21.496 12.8784 21.3285 12.8858H1.45483C1.28807 12.8763 1.12497 12.8331 0.975328 12.7589C0.825685 12.6847 0.692588 12.581 0.584051 12.454C0.475514 12.327 0.393758 12.1794 0.343728 12.0201C0.293699 11.8607 0.27642 11.6929 0.292918 11.5267C0.27454 11.3601 0.290503 11.1915 0.339815 11.0314C0.389128 10.8712 0.470742 10.7229 0.579626 10.5955C0.688511 10.4682 0.822361 10.3645 0.97289 10.2909C1.12342 10.2172 1.28744 10.1753 1.45483 10.1675H21.3285Z" fill="#00521D"/>
<path d="M31.2302 18.5484C31.2206 18.6544 31.1898 18.7573 31.1396 18.8512C31.0894 18.945 31.0209 19.0278 30.9381 19.0947C30.8553 19.1616 30.7599 19.2112 30.6576 19.2405C30.5553 19.2698 30.4482 19.2783 30.3425 19.2654C29.8731 19.2654 29.4282 19.0189 29.4282 18.5484V13.5062C29.156 13.5309 28.9084 13.5802 28.6392 13.6049C28.6401 16.6068 28.1133 19.5855 27.0827 22.405C26.9904 22.6309 26.833 22.8243 26.6305 22.9606C26.428 23.0969 26.1895 23.1699 25.9455 23.1704C25.796 23.1791 25.6463 23.1578 25.5052 23.1076C25.3641 23.0575 25.2345 22.9794 25.1241 22.8783C25.0138 22.7771 24.9248 22.6548 24.8626 22.5186C24.8003 22.3824 24.7661 22.2351 24.7619 22.0854C24.7729 21.8986 24.8149 21.7149 24.8862 21.5419C25.8153 19.0818 26.3247 16.4832 26.3933 13.8544C26.122 13.8791 25.8015 13.9047 25.5529 13.9047C25.3946 13.9028 25.2382 13.8689 25.0933 13.8052C24.9483 13.7415 24.8177 13.6492 24.7092 13.5338C24.6008 13.4184 24.5167 13.2824 24.462 13.1338C24.4073 12.9851 24.3832 12.827 24.391 12.6688C24.3826 12.5243 24.4028 12.3795 24.4505 12.2428C24.4983 12.1061 24.5725 11.9801 24.669 11.8722C24.7655 11.7642 24.8824 11.6764 25.0129 11.6137C25.1434 11.551 25.285 11.5147 25.4296 11.5069L26.4673 11.433V5.52581C26.4673 4.09266 27.1103 3.42491 28.4942 3.42491H28.9143C29.1166 2.73405 29.2812 2.03271 29.4075 1.32401C29.4581 1.05906 29.6046 0.822068 29.819 0.658308C30.0333 0.494548 30.3005 0.415514 30.5694 0.436317C30.8639 0.404406 31.159 0.490169 31.3905 0.674924C31.622 0.859678 31.7711 1.12845 31.8053 1.42265C31.8053 1.47295 31.7806 1.54596 31.7806 1.61993C31.6766 2.23132 31.5279 2.83425 31.3358 3.42392H32.2994C33.6803 3.42392 34.3264 4.09167 34.3264 5.52481V10.419C34.4655 10.3991 34.606 10.3905 34.7465 10.3934C34.8831 10.4024 35.0166 10.4383 35.1392 10.4993C35.2618 10.5602 35.3711 10.6449 35.4607 10.7484C35.5504 10.8519 35.6186 10.9721 35.6614 11.1022C35.7042 11.2322 35.7208 11.3694 35.7102 11.5059C35.7231 11.7703 35.6405 12.0305 35.4775 12.2391C35.3146 12.4476 35.0821 12.5907 34.8225 12.6422C34.6745 12.6669 34.5009 12.7162 34.3293 12.7408V20.6749C34.3681 20.9862 34.3341 21.3022 34.2299 21.598C34.1257 21.8939 33.9541 22.1615 33.7288 22.3796C33.5034 22.5978 33.2304 22.7606 32.9314 22.8552C32.6323 22.9498 32.3153 22.9736 32.0055 22.9247C31.5834 22.9251 31.1619 22.8922 30.745 22.8261C30.4405 22.7976 30.1585 22.6537 29.9568 22.4239C29.755 22.1941 29.6489 21.8958 29.66 21.5902C29.649 21.4366 29.6695 21.2824 29.7202 21.1369C29.7709 20.9915 29.8508 20.858 29.955 20.7446C30.0592 20.6312 30.1855 20.5402 30.3261 20.4774C30.4666 20.4145 30.6186 20.381 30.7726 20.379C30.8229 20.379 30.8969 20.4037 30.9699 20.4037C31.2059 20.4515 31.4461 20.4763 31.6869 20.4777C31.9828 20.4777 32.1318 20.379 32.1318 19.9845V13.1334C31.8359 13.1837 31.54 13.2074 31.2441 13.2567L31.2302 18.5484ZM32.118 6.01699C32.118 5.62245 31.9937 5.49721 31.5745 5.49721H29.228C28.8078 5.49721 28.6845 5.62147 28.6845 6.01699V11.2328C29.8208 11.1085 30.9827 10.9368 32.1199 10.7879L32.118 6.01699ZM31.5745 8.93358C31.594 9.02294 31.6023 9.11439 31.5992 9.20581C31.6014 9.32975 31.5787 9.45288 31.5323 9.56783C31.4859 9.68278 31.4168 9.7872 31.3292 9.87486C31.2415 9.96251 31.1371 10.0316 31.0222 10.078C30.9072 10.1244 30.7841 10.1471 30.6601 10.1448C30.4482 10.1508 30.2407 10.0825 30.0738 9.95173C29.9068 9.82097 29.7908 9.63598 29.7458 9.42874C29.597 8.84742 29.4069 8.2775 29.1767 7.72336C29.1307 7.59677 29.1057 7.4635 29.1027 7.32883C29.1093 7.21308 29.139 7.09982 29.1901 6.99574C29.2412 6.89165 29.3125 6.79885 29.4001 6.72282C29.4876 6.64678 29.5895 6.58906 29.6997 6.55305C29.8099 6.51703 29.9262 6.50346 30.0417 6.51314C30.2231 6.50981 30.4016 6.55944 30.5552 6.65596C30.7088 6.75249 30.831 6.89172 30.9067 7.0566C31.1877 7.65948 31.4119 8.28719 31.5765 8.93162L31.5745 8.93358ZM43.2408 11.2081C44.8979 11.2081 45.7619 11.8255 45.7619 12.9835C45.7493 13.4951 45.6318 13.9986 45.4167 14.463C44.8438 15.8164 44.0686 17.0748 43.1176 18.1953C44.1431 19.1006 45.3017 19.8428 46.553 20.3958C46.8185 20.4869 47.0502 20.6561 47.218 20.8812C47.3857 21.1063 47.4815 21.3768 47.4929 21.6573C47.4917 21.9935 47.3591 22.3157 47.1233 22.5553C46.8876 22.795 46.5675 22.9329 46.2314 22.9395C46.0443 22.9313 45.8601 22.8891 45.688 22.8153C44.1063 22.1292 42.6648 21.1572 41.4359 19.948C40.0435 21.2249 38.4481 22.2609 36.7153 23.0135C36.5207 23.0997 36.3096 23.1421 36.0968 23.1378C35.7829 23.1378 35.4819 23.0131 35.2599 22.7911C35.0379 22.5692 34.9132 22.2681 34.9132 21.9542C34.9213 21.6953 35.0085 21.4451 35.1632 21.2374C35.3179 21.0296 35.5326 20.8743 35.7783 20.7923C37.2727 20.1495 38.6507 19.2643 39.8567 18.1726C38.7608 16.7362 37.9014 15.1339 37.311 13.4264H37.0151C36.8759 13.4224 36.7389 13.3899 36.6127 13.3309C36.4865 13.2719 36.3737 13.1877 36.2812 13.0835C36.1888 12.9792 36.1187 12.8571 36.0753 12.7247C36.0319 12.5924 36.0161 12.4525 36.0288 12.3138C36.0141 12.1747 36.0286 12.0341 36.0713 11.901C36.114 11.7678 36.1839 11.645 36.2768 11.5404C36.3696 11.4358 36.4831 11.3517 36.6103 11.2935C36.7374 11.2352 36.8753 11.2041 37.0151 11.2022L43.2408 11.2081ZM41.8077 1.3694C43.5831 1.3694 44.2055 2.13577 44.2055 3.5699V7.3515C44.2055 7.62372 44.3041 7.69771 44.6503 7.69771C45.1701 7.69771 45.3408 7.45113 45.4394 6.3632C45.4683 6.10066 45.5971 5.85928 45.799 5.68907C46.001 5.51886 46.2607 5.43285 46.5244 5.44887C46.6664 5.43645 46.8096 5.45319 46.9449 5.49809C47.0803 5.54298 47.2051 5.61507 47.3116 5.70993C47.4181 5.8048 47.5041 5.92044 47.5642 6.04974C47.6244 6.17904 47.6576 6.31928 47.6616 6.46184C47.6647 7.30062 47.4517 8.12605 47.0432 8.85863C46.5283 9.57274 45.8379 9.86862 44.3584 9.86862C42.3561 9.86862 41.788 9.32517 41.788 7.9157V4.15777C41.788 3.76323 41.6637 3.58962 41.2948 3.58962H40.3312C39.9603 3.58962 39.8124 3.76323 39.8124 4.15777V4.82552C39.8536 5.84863 39.6614 6.86769 39.2504 7.80553C38.8395 8.74337 38.2204 9.57536 37.4402 10.2385C37.1862 10.4588 36.8621 10.5815 36.5259 10.5847C36.3683 10.5902 36.2111 10.5645 36.0635 10.509C35.9159 10.4535 35.7808 10.3693 35.6659 10.2613C35.551 10.1532 35.4586 10.0235 35.3941 9.87961C35.3296 9.73571 35.2942 9.58045 35.29 9.42281C35.3022 9.21504 35.3593 9.0124 35.4574 8.82883C35.5554 8.64527 35.6922 8.48514 35.8581 8.35953C36.4051 7.87049 36.8306 7.26077 37.1009 6.57869C37.3713 5.89661 37.479 5.16095 37.4155 4.43V3.56397C37.4155 2.13083 38.0074 1.36347 39.7147 1.36347L41.8077 1.3694ZM39.7561 13.4323C40.1873 14.509 40.7608 15.5232 41.4615 16.4475C42.0481 15.6656 42.5445 14.8199 42.941 13.9264C42.9853 13.8422 43.0105 13.7493 43.015 13.6542C43.015 13.5053 42.866 13.4313 42.5701 13.4313L39.7561 13.4323Z" fill="#00521D"/>
<path d="M55.3087 22.3537C55.3087 23.0441 54.6656 23.3923 54.0265 23.3923C53.3587 23.3923 52.7157 23.0461 52.7157 22.3537V14.5429C52.1475 15.0124 51.5794 15.4306 51.0112 15.8251C50.7747 15.9994 50.4893 16.0947 50.1955 16.0974C49.8802 16.0869 49.581 15.9551 49.3605 15.7295C49.14 15.5038 49.0151 15.2017 49.012 14.8861C49.0185 14.6656 49.0809 14.4503 49.1933 14.2606C49.3058 14.0708 49.4647 13.9127 49.655 13.8012C52.0309 12.2431 53.9638 10.0975 55.2663 7.57246C55.3081 7.48725 55.3332 7.39485 55.3403 7.30023C55.3403 7.12663 55.1923 7.05365 54.8954 7.05365H50.4954C49.878 7.05365 49.5811 6.46183 49.5811 5.87003C49.5811 5.3019 49.877 4.70815 50.4954 4.70815H52.7157V1.2974C52.7157 0.606963 53.3587 0.284424 54.0265 0.284424C54.6696 0.284424 55.3087 0.605977 55.3087 1.2974V4.70815H56.0258C57.4343 4.70815 58.2253 5.35123 58.2253 6.48354C58.2116 6.9607 58.1022 7.43025 57.9038 7.8644C57.2885 9.24802 56.4813 10.538 55.506 11.6963C56.5191 12.1731 57.4803 12.7532 58.3743 13.4273C58.5477 13.5415 58.6916 13.6949 58.7945 13.8752C58.8973 14.0556 58.9561 14.2576 58.966 14.465C58.9624 14.774 58.8394 15.0697 58.6229 15.2902C58.4064 15.5108 58.1131 15.6392 57.8042 15.6486C57.5027 15.6415 57.2136 15.5275 56.9885 15.327C56.4559 14.9031 55.8957 14.5149 55.3117 14.1651L55.3087 22.3537ZM63.6393 11.6756H60.0796C59.9246 11.667 59.7728 11.6272 59.6335 11.5586C59.4942 11.4899 59.3702 11.3939 59.2689 11.2762C59.1676 11.1585 59.0911 11.0216 59.044 10.8736C58.9969 10.7256 58.9801 10.5697 58.9947 10.4151C58.9781 10.26 58.9934 10.1033 59.0398 9.95441C59.0861 9.80554 59.1625 9.66773 59.2641 9.54952C59.3658 9.43131 59.4906 9.3352 59.6309 9.26709C59.7711 9.19898 59.9238 9.16035 60.0796 9.15355H63.6393V1.91091C63.6842 1.57555 63.8492 1.26788 64.1038 1.04506C64.3584 0.822245 64.6853 0.69942 65.0236 0.69942C65.362 0.69942 65.6888 0.822245 65.9434 1.04506C66.198 1.26788 66.3631 1.57555 66.4079 1.91091V9.15355H70.4125C70.569 9.15817 70.7228 9.19536 70.8641 9.26276C71.0054 9.33015 71.1311 9.42627 71.2332 9.54498C71.3353 9.66368 71.4115 9.80237 71.457 9.95218C71.5025 10.102 71.5163 10.2596 71.4974 10.4151C71.5143 10.5701 71.4992 10.7269 71.4529 10.8759C71.4067 11.0248 71.3303 11.1627 71.2286 11.2808C71.1268 11.399 71.0019 11.4951 70.8615 11.563C70.7211 11.6309 70.5683 11.6692 70.4125 11.6756H66.4079V19.6846H71.1779C71.3343 19.6891 71.4881 19.7262 71.6294 19.7935C71.7707 19.8608 71.8965 19.9568 71.9986 20.0754C72.1007 20.1941 72.1769 20.3327 72.2224 20.4824C72.2679 20.6322 72.2817 20.7898 72.2628 20.9452C72.2797 21.1002 72.2646 21.2571 72.2183 21.406C72.1721 21.5549 72.0957 21.6928 71.994 21.811C71.8922 21.9292 71.7673 22.0252 71.6269 22.0931C71.4865 22.161 71.3337 22.1993 71.1779 22.2057H58.5459C58.3908 22.1971 58.2391 22.1573 58.0998 22.0887C57.9605 22.02 57.8365 21.924 57.7352 21.8063C57.6339 21.6886 57.5573 21.5517 57.5102 21.4037C57.4631 21.2558 57.4463 21.0998 57.4609 20.9452C57.4443 20.7902 57.4597 20.6335 57.506 20.4847C57.5524 20.3359 57.6288 20.1981 57.7304 20.08C57.8321 19.9619 57.9569 19.8658 58.0972 19.7978C58.2374 19.7298 58.3901 19.6913 58.5459 19.6846H63.6383L63.6393 11.6756Z" fill="#00521D"/>
<path d="M78.4116 22.4276C75.6193 22.4276 74.5807 21.2658 74.5807 19.0406V4.95277C74.5807 2.7276 75.6193 1.56567 78.4116 1.56567H91.4381C94.2561 1.56567 95.2691 2.7276 95.2691 4.95277V19.0416C95.2691 21.6623 93.8596 22.4286 91.4381 22.4286L78.4116 22.4276ZM90.8946 20.0052C92.1305 20.0052 92.5261 19.6353 92.5261 18.6461V5.3473C92.5261 4.36096 92.1315 3.98811 90.8946 3.98811H78.96C77.7488 3.98811 77.3286 4.358 77.3286 5.3473V18.6461C77.3286 19.7586 77.9471 20.0052 78.96 20.0052H90.8946ZM79.5242 10.1902C79.3771 10.1867 79.2323 10.1534 79.0984 10.0925C78.9645 10.0316 78.8443 9.94429 78.745 9.83577C78.6457 9.72725 78.5694 9.59978 78.5205 9.46102C78.4717 9.32226 78.4514 9.17508 78.4609 9.02829C78.4494 8.88107 78.4683 8.73306 78.5164 8.59343C78.5645 8.4538 78.6407 8.32554 78.7404 8.2166C78.8401 8.10766 78.9611 8.02036 79.0959 7.96011C79.2307 7.89987 79.3765 7.86796 79.5242 7.86638H86.2727V5.81482C86.3303 5.51619 86.49 5.24693 86.7246 5.0533C86.9591 4.85967 87.2537 4.75374 87.5579 4.75374C87.862 4.75374 88.1567 4.85967 88.3912 5.0533C88.6257 5.24693 88.7855 5.51619 88.8431 5.81482V7.86638H90.796C90.9437 7.86782 91.0896 7.89962 91.2245 7.95981C91.3594 8.02001 91.4804 8.1073 91.5802 8.21627C91.6799 8.32524 91.7561 8.45359 91.8041 8.59328C91.8522 8.73297 91.8709 8.88104 91.8593 9.02829C91.8729 9.17596 91.8555 9.32484 91.8082 9.46538C91.7609 9.60593 91.6848 9.73501 91.5847 9.84441C91.4846 9.9538 91.3627 10.0411 91.2269 10.1006C91.0911 10.1602 90.9443 10.1907 90.796 10.1902H88.8431V16.2463C88.8431 18.3225 87.8045 19.0149 85.9018 19.0149C85.2877 19.0186 84.6747 18.9604 84.0722 18.8413C83.7839 18.7995 83.5211 18.6528 83.3342 18.4293C83.1473 18.2058 83.0494 17.9213 83.0592 17.6301C83.0509 17.4706 83.0745 17.3111 83.1287 17.1608C83.1829 17.0106 83.2666 16.8727 83.3748 16.7553C83.4831 16.6378 83.6137 16.5432 83.759 16.477C83.9043 16.4107 84.0615 16.3742 84.2211 16.3696C84.3126 16.3653 84.4041 16.3736 84.4933 16.3942C84.8675 16.4723 85.2484 16.514 85.6306 16.5185C86.1001 16.5185 86.2737 16.3942 86.2737 15.9267V10.1902H79.5242ZM84.1708 13.0821C84.3356 13.2702 84.4425 13.5019 84.4786 13.7494C84.5147 13.9968 84.4784 14.2494 84.3741 14.4767C84.2699 14.704 84.1021 14.8963 83.891 15.0304C83.6799 15.1644 83.4345 15.2346 83.1845 15.2323C83.0202 15.2338 82.8576 15.1993 82.7082 15.1311C82.5587 15.0629 82.426 14.9628 82.3194 14.8378C81.7657 14.2225 81.18 13.6368 80.5648 13.0831C80.4375 12.9823 80.3339 12.8549 80.2613 12.7097C80.1887 12.5644 80.1488 12.4051 80.1446 12.2428C80.1626 11.908 80.3086 11.593 80.5524 11.3629C80.7963 11.1329 81.1192 11.0054 81.4545 11.0069C81.7399 11.0104 82.0166 11.1058 82.2435 11.2791C82.9499 11.8086 83.5962 12.4139 84.1708 13.0841V13.0821Z" fill="#00521D"/>
<path d="M102.166 8.93161C102.424 9.1971 102.573 9.54851 102.587 9.91794C102.573 10.2755 102.422 10.614 102.164 10.8626C101.907 11.1113 101.564 11.251 101.206 11.2525C101.029 11.2522 100.853 11.2146 100.692 11.1422C100.53 11.0698 100.385 10.9642 100.267 10.8323C99.6137 10.1488 98.9204 9.50487 98.1906 8.90401C98.0366 8.79901 97.9095 8.65935 97.8194 8.49627C97.7293 8.33318 97.6787 8.15122 97.6718 7.96502C97.6987 7.62093 97.8573 7.30046 98.1145 7.07028C98.3717 6.8401 98.7077 6.71792 99.0526 6.72912C99.3618 6.73103 99.6631 6.82588 99.9176 7.00135C100.739 7.55591 101.494 8.20364 102.166 8.93161ZM102.71 13.6276C102.926 13.5955 103.147 13.6198 103.351 13.6983C103.555 13.7768 103.735 13.9068 103.874 14.0756C104.013 14.2443 104.106 14.4461 104.144 14.6615C104.182 14.8768 104.164 15.0982 104.091 15.3043C103.358 17.615 102.355 19.8307 101.1 21.9049C100.964 22.1382 100.769 22.3318 100.535 22.4662C100.3 22.6007 100.035 22.6714 99.7648 22.6713C99.4213 22.6927 99.0833 22.5773 98.8246 22.3504C98.5659 22.1234 98.4075 21.8034 98.3839 21.4601C98.3899 21.167 98.4845 20.8826 98.6551 20.6443C99.8195 18.7069 100.757 16.6417 101.448 14.4896C101.532 14.2246 101.702 13.9954 101.932 13.839C102.161 13.6826 102.437 13.6081 102.714 13.6276H102.71ZM103.946 2.99882C104.207 3.26201 104.357 3.61483 104.366 3.98516C104.354 4.33295 104.209 4.66279 103.96 4.90656C103.712 5.15033 103.379 5.28941 103.032 5.29501C102.847 5.28792 102.666 5.2425 102.5 5.16167C102.334 5.08084 102.187 4.96635 102.068 4.8255C101.433 4.16671 100.765 3.5412 100.066 2.95147C99.9216 2.84437 99.8028 2.707 99.7176 2.54903C99.6324 2.39106 99.5828 2.21632 99.5724 2.03714C99.6051 1.69739 99.7662 1.38291 100.023 1.15784C100.279 0.932769 100.612 0.814056 100.953 0.825923C101.265 0.833512 101.567 0.936802 101.818 1.12181C102.591 1.67359 103.305 2.30288 103.95 2.99981L103.946 2.99882ZM117.911 5.02573C118.203 5.05837 118.473 5.19739 118.668 5.4162C118.864 5.635 118.972 5.91826 118.972 6.21181C118.972 6.50537 118.864 6.78862 118.668 7.00743C118.473 7.22624 118.203 7.36523 117.911 7.39787H113.462V10.9576H119.493C119.785 10.9902 120.055 11.1292 120.25 11.348C120.446 11.5668 120.554 11.8501 120.554 12.1436C120.554 12.4372 120.446 12.7204 120.25 12.9392C120.055 13.158 119.785 13.2971 119.493 13.3297H112.275C111.578 15.3692 110.744 17.3595 109.779 19.2872C111.484 19.0643 113.215 18.8423 114.921 18.5454C114.526 18.0523 114.132 17.5591 113.759 17.1123C113.563 16.8946 113.45 16.6156 113.437 16.3232C113.463 15.9957 113.612 15.6903 113.856 15.4701C114.1 15.2499 114.419 15.1316 114.747 15.1396C114.952 15.1444 115.154 15.1905 115.34 15.2753C115.527 15.36 115.694 15.4816 115.832 15.6328C117.187 17.1048 118.443 18.6657 119.59 20.305C119.767 20.5399 119.863 20.8264 119.862 21.1207C119.836 21.4875 119.67 21.8302 119.398 22.0785C119.127 22.3269 118.771 22.462 118.404 22.4562C118.147 22.452 117.896 22.3815 117.675 22.2515C117.454 22.1215 117.27 21.9365 117.142 21.7145C116.92 21.3683 116.697 20.9984 116.426 20.6019C112.875 21.4069 109.275 21.9766 105.649 22.3073H105.476C105.3 22.3154 105.125 22.2872 104.961 22.2246C104.797 22.1619 104.648 22.0661 104.523 21.9432C104.398 21.8203 104.299 21.6728 104.233 21.5101C104.168 21.3474 104.136 21.1729 104.141 20.9974C104.132 20.6736 104.251 20.3592 104.473 20.1229C104.695 19.8866 105.001 19.7475 105.325 19.7359C105.77 19.7113 106.212 19.6619 106.684 19.6116C107.154 18.6973 107.648 17.7583 108.065 16.8193C108.579 15.6824 109.033 14.5189 109.424 13.3336H105.222C104.93 13.301 104.661 13.162 104.465 12.9432C104.27 12.7244 104.161 12.4411 104.161 12.1476C104.161 11.854 104.27 11.5707 104.465 11.3519C104.661 11.1331 104.93 10.9941 105.222 10.9615H110.783V7.40181H106.68C106.388 7.36918 106.119 7.23018 105.923 7.01138C105.727 6.79257 105.619 6.50931 105.619 6.21576C105.619 5.9222 105.727 5.63895 105.923 5.42014C106.119 5.20133 106.388 5.06231 106.68 5.02968H110.783V1.52031C110.822 1.19349 110.979 0.892248 111.225 0.673674C111.471 0.455101 111.789 0.334381 112.118 0.334381C112.447 0.334381 112.765 0.455101 113.011 0.673674C113.257 0.892248 113.414 1.19349 113.453 1.52031V5.02968L117.911 5.02573Z" fill="#00521D"/>
<path d="M143.87 19.66C144.047 19.7416 144.206 19.8584 144.337 20.0034C144.467 20.1484 144.567 20.3184 144.63 20.5032C144.693 20.688 144.718 20.8837 144.703 21.0783C144.688 21.2729 144.633 21.4625 144.543 21.6354C144.452 21.8083 144.327 21.9609 144.176 22.084C144.024 22.2072 143.849 22.2982 143.661 22.3515C143.474 22.4049 143.277 22.4194 143.083 22.3944C142.89 22.3693 142.703 22.3051 142.535 22.2057C138.167 19.5963 134.952 15.427 133.538 10.5393C132.971 12.8612 131.946 15.0461 130.522 16.9653C128.834 19.1777 126.726 21.0344 124.318 22.4286C124.056 22.5864 123.758 22.6718 123.453 22.6762C123.277 22.6743 123.103 22.6374 122.941 22.5678C122.779 22.4981 122.633 22.397 122.511 22.2704C122.389 22.1437 122.293 21.9941 122.229 21.8301C122.165 21.6661 122.135 21.491 122.139 21.315C122.139 21.0643 122.208 20.8185 122.339 20.6047C122.47 20.3909 122.657 20.2175 122.881 20.1038C125.024 18.9065 126.9 17.2832 128.392 15.3339C130.519 12.442 131.68 8.70968 131.68 2.18409C131.741 1.85158 131.916 1.55095 132.176 1.33453C132.436 1.11811 132.763 0.999603 133.101 0.999603C133.439 0.999603 133.766 1.11811 134.026 1.33453C134.286 1.55095 134.461 1.85158 134.522 2.18409C134.522 3.09809 134.498 3.96312 134.448 4.77915C135.589 11.0325 138.209 16.4465 143.87 19.66Z" fill="#00521D"/>
<path d="M20.6855 52.357C15.3838 56.1603 9.46255 59.0151 3.18499 60.7941C3.00311 60.8467 2.81386 60.869 2.62475 60.8602C2.40623 60.859 2.19007 60.8147 1.98876 60.7297C1.78745 60.6446 1.60496 60.5206 1.45177 60.3648C1.29858 60.2089 1.17771 60.0243 1.09616 59.8216C1.01461 59.6188 0.973964 59.402 0.976569 59.1835C0.968809 58.833 1.08241 58.4907 1.2981 58.2144C1.5138 57.9382 1.81835 57.7449 2.16018 57.6674C7.24817 56.2586 12.1246 54.1747 16.6593 51.4713C12.2435 52.2298 9.34268 52.5563 4.99295 52.9508C4.53134 52.9843 3.27868 53.0829 2.9167 53.0829C2.70275 53.0772 2.49204 53.0292 2.29672 52.9417C2.1014 52.8542 1.92532 52.7289 1.77863 52.573C1.63194 52.4172 1.51754 52.2338 1.44201 52.0336C1.36649 51.8333 1.33133 51.6201 1.33856 51.4062C1.32705 51.2056 1.35691 51.0048 1.42627 50.8163C1.49563 50.6277 1.60304 50.4554 1.74179 50.3101C1.88053 50.1648 2.04766 50.0495 2.23282 49.9715C2.41797 49.8935 2.61716 49.8544 2.81806 49.8566C4.16934 49.7906 5.52162 49.6919 6.87191 49.5933V38.4161C6.87191 35.9444 7.92727 34.7578 11.0904 34.7578H13.3028C13.6263 33.9736 13.9014 33.1702 14.1264 32.3522C14.235 31.9868 14.4628 31.6682 14.7735 31.4473C15.0842 31.2263 15.4598 31.1157 15.8406 31.133C16.0581 31.1152 16.277 31.1416 16.484 31.2106C16.691 31.2796 16.8818 31.3898 17.0451 31.5346C17.2083 31.6794 17.3405 31.8558 17.4337 32.0531C17.527 32.2504 17.5792 32.4645 17.5874 32.6826C17.5868 32.8839 17.5535 33.0838 17.4888 33.2744C17.3278 33.7769 17.1408 34.2708 16.9286 34.7539H19.7298C22.8939 34.7539 23.9493 35.9375 23.9493 38.4122V45.3668C25.0037 44.2819 25.9594 43.0598 26.9152 41.8733C27.0784 41.64 27.2954 41.4494 27.5477 41.3176C27.8001 41.1857 28.0804 41.1165 28.3651 41.1157C28.801 41.1094 29.2218 41.2755 29.5359 41.5779C29.8499 41.8803 30.0318 42.2945 30.0419 42.7304C30.0305 43.1666 29.8673 43.5852 29.5803 43.914C27.8729 46.0172 25.9873 47.9691 23.9444 49.7482V58.0205C23.9444 60.8888 22.4945 62.0754 19.5276 62.0754C18.8201 62.0735 18.1143 62.0075 17.4188 61.8781C17.0319 61.8146 16.6813 61.6123 16.4327 61.3092C16.184 61.0061 16.0542 60.6228 16.0675 60.2309C16.0553 60.0042 16.0898 59.7775 16.1689 59.5647C16.2479 59.3519 16.3698 59.1576 16.527 58.9938C16.6842 58.8301 16.8734 58.7003 17.0827 58.6127C17.2921 58.525 17.5173 58.4812 17.7443 58.4841C17.855 58.4802 17.9659 58.4911 18.0737 58.5167C18.5746 58.6016 19.0816 58.6458 19.5897 58.6488C20.2801 58.6488 20.576 58.4181 20.576 57.627V54.8258L20.6855 52.357ZM20.5869 38.647C20.5869 37.7593 20.3896 37.5916 19.3046 37.5916H11.5274C10.4424 37.5916 10.2452 37.7563 10.2452 38.647V39.7319H20.5938L20.5869 38.647ZM20.5869 42.3704H10.2383V44.3805H20.5869V42.3704ZM20.5869 47.017H10.2383V49.325C12.6449 49.1277 15.0506 48.8319 17.4237 48.536C18.4791 48.4038 19.5325 48.2401 20.5879 48.0744L20.5869 47.017Z" fill="#00521D"/>
<path d="M53.2571 56.4444C53.2571 57.4662 53.6191 57.7266 55.7615 57.7266C58.464 57.7266 58.9917 57.3636 59.1564 54.958C59.1923 54.5303 59.3964 54.1344 59.7239 53.857C60.0514 53.5797 60.4755 53.4435 60.9032 53.4785C61.1237 53.4639 61.345 53.4934 61.554 53.5651C61.7631 53.6368 61.9558 53.7493 62.121 53.8962C62.2862 54.043 62.4206 54.2212 62.5163 54.4204C62.612 54.6196 62.6672 54.8359 62.6786 55.0566C62.74 56.5322 62.325 57.9884 61.495 59.21C60.41 60.4923 58.7925 61.0229 55.794 61.0229C50.4875 61.0229 49.6304 59.8689 49.6304 57.3321V45.14H45.5765C45.5054 48.0305 44.8904 50.8817 43.7637 53.5445C42.7511 55.7602 41.2125 57.6949 39.2818 59.1805C38.0237 60.1117 36.6636 60.8966 35.2279 61.52C34.992 61.6341 34.7324 61.6909 34.4704 61.6858C34.0565 61.687 33.6556 61.5409 33.3396 61.2735C33.0236 61.0062 32.813 60.6351 32.7456 60.2267C32.6782 59.8183 32.7584 59.3992 32.9718 59.0445C33.1851 58.6898 33.5178 58.4226 33.9102 58.2908C38.7215 56.1149 41.6223 51.995 41.8857 45.14H34.4379C34.042 45.0766 33.6818 44.8742 33.4217 44.5692C33.1616 44.2642 33.0188 43.8764 33.0188 43.4756C33.0188 43.0747 33.1616 42.6869 33.4217 42.3819C33.6818 42.0769 34.042 41.8745 34.4379 41.8111H61.2317C61.6382 41.8607 62.0126 42.0573 62.2841 42.364C62.5556 42.6706 62.7055 43.066 62.7055 43.4756C62.7055 43.8851 62.5556 44.2805 62.2841 44.5871C62.0126 44.8938 61.6382 45.0904 61.2317 45.14H53.2562L53.2571 56.4444ZM57.7065 33.737C57.915 33.7425 58.1201 33.7915 58.3087 33.8807C58.4972 33.97 58.665 34.0976 58.8015 34.2554C58.9379 34.4132 59.04 34.5977 59.1011 34.7971C59.1622 34.9966 59.181 35.2066 59.1564 35.4138C59.1783 35.6204 59.1575 35.8293 59.0954 36.0277C59.0332 36.226 58.931 36.4094 58.7951 36.5666C58.6592 36.7238 58.4924 36.8514 58.3052 36.9415C58.1179 37.0316 57.9141 37.0823 57.7065 37.0905H37.5695C37.3628 37.0794 37.1605 37.0268 36.9747 36.9357C36.7889 36.8446 36.6233 36.717 36.488 36.5605C36.3526 36.4039 36.2502 36.2217 36.1869 36.0246C36.1236 35.8276 36.1007 35.6198 36.1196 35.4138C36.098 35.2071 36.1189 34.9983 36.1812 34.8001C36.2435 34.6019 36.3457 34.4186 36.4815 34.2615C36.6174 34.1044 36.7841 33.9768 36.9712 33.8865C37.1583 33.7963 37.3619 33.7454 37.5695 33.737H57.7065Z" fill="#00521D"/>
<path d="M68.5127 46.2269L67.8223 47.3119C67.6605 47.5881 67.4304 47.818 67.154 47.9795C66.8776 48.1411 66.5643 48.2287 66.2442 48.2341C66.0212 48.2408 65.7991 48.2034 65.5906 48.1242C65.382 48.045 65.1912 47.9254 65.029 47.7723C64.8667 47.6192 64.7362 47.4356 64.645 47.232C64.5538 47.0285 64.5036 46.8089 64.4974 46.5859C64.4998 46.1841 64.6262 45.7928 64.8594 45.4654C67.2177 41.6238 68.9113 37.4119 69.8689 33.007C69.9729 32.6221 70.206 32.2846 70.5293 32.0511C70.8525 31.8176 71.2462 31.7024 71.6444 31.7248C71.8809 31.7047 72.1192 31.7325 72.3447 31.8066C72.5703 31.8807 72.7786 31.9996 72.9571 32.1562C73.1356 32.3128 73.2806 32.5038 73.3835 32.7178C73.4864 32.9318 73.545 33.1644 73.5559 33.4016C73.5474 33.5571 73.5253 33.7116 73.4898 33.8632C72.7953 36.7042 71.835 39.4735 70.6215 42.1346C70.9797 42.1381 71.3236 42.2753 71.5858 42.5192C71.848 42.7632 72.0096 43.0963 72.0389 43.4533V60.9539C72.0389 61.8416 71.1512 62.2726 70.2921 62.2726C69.4044 62.2726 68.5167 61.8445 68.5167 60.9539L68.5127 46.2269ZM85.8486 57.696V60.7941C85.8486 61.7498 84.9914 62.2114 84.1018 62.2114C83.2446 62.2114 82.3549 61.7498 82.3549 60.7941V57.696L82.4871 53.3463C80.5733 55.734 78.2928 57.803 75.7307 59.4763C75.4178 59.685 75.0515 59.7994 74.6754 59.8058C74.2409 59.7982 73.8263 59.6222 73.5191 59.3149C73.2118 59.0076 73.0358 58.5931 73.0282 58.1586C73.0384 57.8699 73.1263 57.5893 73.2825 57.3463C73.4387 57.1033 73.6575 56.9069 73.9159 56.7777C76.6244 55.1171 79.0043 52.9722 80.9366 50.4504H75.3658C75.1811 50.4328 75.0019 50.3786 74.8385 50.2909C74.6751 50.2031 74.5308 50.0836 74.4142 49.9394C74.2977 49.7951 74.211 49.629 74.1595 49.4509C74.108 49.2727 74.0926 49.0861 74.1141 48.9018C74.1141 48.1128 74.5422 47.3523 75.3658 47.3523H82.353V45.7742C82.353 44.8519 83.2407 44.3933 84.0998 44.3933C84.9875 44.3933 85.8466 44.8549 85.8466 45.7742V47.3523H93.2619C93.4499 47.3643 93.6335 47.4146 93.8013 47.5002C93.9691 47.5858 94.1177 47.7049 94.2378 47.85C94.3579 47.9952 94.447 48.1634 94.4997 48.3443C94.5524 48.5251 94.5675 48.7149 94.5441 48.9018C94.5652 49.0884 94.5484 49.2772 94.4948 49.4571C94.4412 49.637 94.3519 49.8042 94.2322 49.9487C94.1125 50.0933 93.9649 50.2123 93.7982 50.2985C93.6314 50.3846 93.449 50.4363 93.2619 50.4504H87.1643C89.3016 52.6815 91.7689 54.571 94.48 56.0528C94.7889 56.197 95.0515 56.4246 95.238 56.7101C95.4245 56.9956 95.5275 57.3275 95.5353 57.6684C95.5362 58.1199 95.362 58.5542 95.0493 58.88C94.7366 59.2057 94.3098 59.3976 93.8586 59.4152C93.5192 59.4041 93.1891 59.3019 92.9028 59.1193C90.2005 57.5333 87.7741 55.5186 85.7184 53.1539L85.8486 57.696ZM80.0805 43.69C77.3779 43.69 76.1923 42.5696 76.1923 40.2951V36.1091C76.1923 33.8346 77.3759 32.7141 80.0805 32.7141H88.3203C91.0229 32.7141 92.2085 33.8346 92.2085 36.1091V40.2941C92.2085 42.898 90.6924 43.6891 88.3203 43.6891L80.0805 43.69ZM87.6614 40.6581C88.485 40.6581 88.7158 40.4272 88.7158 39.5376V36.8676C88.7158 35.9799 88.485 35.7471 87.6614 35.7471H80.7403C79.9167 35.7471 79.6859 35.9779 79.6859 36.6348V39.7654C79.6859 40.5229 80.0489 40.6531 80.7403 40.6531L87.6614 40.6581Z" fill="#00521D"/>
<path d="M98.1679 40.6896C97.7936 40.6057 97.459 40.3968 97.2193 40.0973C96.9795 39.7978 96.8489 39.4256 96.8489 39.042C96.8489 38.6583 96.9795 38.2861 97.2193 37.9866C97.459 37.6871 97.7936 37.4782 98.1679 37.3943H108.021C108.405 37.4668 108.752 37.671 109.001 37.9719C109.251 38.2727 109.387 38.6512 109.387 39.042C109.387 39.4327 109.251 39.8112 109.001 40.112C108.752 40.4128 108.405 40.6171 108.021 40.6896H98.1679ZM101.76 61.3218C99.2884 61.3218 98.4638 60.3354 98.4638 58.3233V54.236C98.4638 52.2258 99.2874 51.2375 101.76 51.2375H105.023C107.461 51.2375 108.285 52.2238 108.285 54.236V58.3233C108.285 60.5968 107.229 61.3218 105.023 61.3218H101.76ZM99.9473 35.9454C99.7625 35.928 99.5832 35.8738 99.4196 35.7861C99.2561 35.6984 99.1118 35.5789 98.9951 35.4347C98.8784 35.2904 98.7917 35.1243 98.7401 34.9461C98.6885 34.7679 98.6731 34.5811 98.6946 34.3968C98.6946 33.6077 99.1237 32.8473 99.9473 32.8473H106.539C106.727 32.8593 106.911 32.9096 107.078 32.9952C107.246 33.0808 107.395 33.1999 107.515 33.345C107.635 33.4902 107.724 33.6583 107.777 33.8392C107.83 34.0201 107.845 34.2099 107.821 34.3968C107.842 34.5833 107.826 34.7722 107.772 34.9522C107.719 35.1321 107.629 35.2994 107.51 35.444C107.39 35.5886 107.242 35.7075 107.075 35.7937C106.909 35.8798 106.726 35.9314 106.539 35.9454H99.9473ZM99.9473 45.2396C99.7625 45.2222 99.5832 45.1681 99.4196 45.0804C99.2561 44.9927 99.1118 44.8732 98.9951 44.7289C98.8784 44.5847 98.7917 44.4185 98.7401 44.2403C98.6885 44.0621 98.6731 43.8753 98.6946 43.691C98.6946 42.902 99.1237 42.1415 99.9473 42.1415H106.539C106.727 42.1535 106.911 42.2038 107.078 42.2894C107.246 42.375 107.395 42.4941 107.515 42.6392C107.635 42.7844 107.724 42.9526 107.777 43.1335C107.83 43.3143 107.845 43.5041 107.821 43.691C107.842 43.8775 107.826 44.0664 107.772 44.2463C107.718 44.4262 107.629 44.5934 107.509 44.738C107.39 44.8825 107.242 45.0015 107.075 45.0876C106.909 45.1738 106.726 45.2255 106.539 45.2396H99.9473ZM99.9473 49.7876C99.7625 49.7702 99.5832 49.716 99.4196 49.6283C99.2561 49.5406 99.1118 49.4212 98.9951 49.2769C98.8784 49.1326 98.7917 48.9665 98.7401 48.7883C98.6885 48.6101 98.6731 48.4233 98.6946 48.239C98.6946 47.45 99.1237 46.6905 99.9473 46.6905H106.539C106.727 46.7025 106.91 46.7528 107.078 46.8384C107.246 46.9239 107.394 47.0428 107.514 47.1879C107.635 47.3329 107.724 47.501 107.776 47.6817C107.829 47.8625 107.844 48.0522 107.821 48.239C107.842 48.4255 107.826 48.6144 107.772 48.7943C107.718 48.9741 107.629 49.1414 107.509 49.286C107.39 49.4305 107.242 49.5494 107.075 49.6356C106.909 49.7218 106.726 49.7735 106.539 49.7876H99.9473ZM104.331 58.3559C104.858 58.3559 105.021 58.1912 105.021 57.6319V54.9619C105.021 54.4007 104.855 54.2044 104.331 54.2044H102.42C101.892 54.2044 101.73 54.4017 101.73 54.9619V57.6319C101.73 58.1596 101.895 58.3559 102.42 58.3559H104.331ZM121.337 44.9753H125.163C125.354 44.9824 125.542 45.0292 125.714 45.1127C125.886 45.1962 126.039 45.3145 126.163 45.4602C126.287 45.6059 126.379 45.7757 126.434 45.959C126.489 46.1423 126.505 46.3349 126.482 46.5248C126.502 46.7141 126.484 46.9056 126.428 47.0876C126.372 47.2697 126.28 47.4384 126.156 47.5833C126.033 47.7283 125.881 47.8466 125.71 47.9308C125.539 48.0151 125.353 48.0636 125.163 48.0733H121.336V57.4997H126.709C127.085 57.5601 127.427 57.7524 127.674 58.0422C127.921 58.3321 128.057 58.7005 128.057 59.0813C128.057 59.4622 127.921 59.8306 127.674 60.1204C127.427 60.4102 127.085 60.6026 126.709 60.6629H110.361C109.991 60.5953 109.656 60.4 109.415 60.111C109.174 59.822 109.042 59.4576 109.042 59.0813C109.042 58.705 109.174 58.3406 109.415 58.0516C109.656 57.7626 109.991 57.5673 110.361 57.4997H111.939V42.6061C112.007 42.2009 112.217 41.8331 112.531 41.5678C112.844 41.3025 113.242 41.157 113.653 41.157C114.064 41.157 114.461 41.3025 114.775 41.5678C115.089 41.8331 115.298 42.2009 115.367 42.6061V57.4997H117.904V36.8331H111.411C110.524 36.8331 110.093 36.044 110.093 35.2184C110.069 35.0271 110.086 34.8331 110.14 34.6483C110.195 34.4635 110.287 34.2919 110.411 34.144C110.534 33.9961 110.687 33.8751 110.859 33.7885C111.031 33.7018 111.219 33.6514 111.411 33.6403H126.248C126.626 33.7035 126.97 33.8988 127.217 34.1915C127.465 34.4841 127.601 34.8552 127.601 35.2387C127.601 35.6221 127.465 35.9931 127.217 36.2858C126.97 36.5784 126.626 36.7738 126.248 36.837H121.336L121.337 44.9753Z" fill="#00521D"/>
<path d="M130.162 42.0419C129.305 42.0419 128.909 41.2528 128.909 40.4638C128.909 39.6747 129.304 38.8856 130.128 38.8856H133.49V32.9528C133.49 32.0651 134.347 31.6341 135.204 31.6341C136.027 31.6341 136.881 32.0632 136.881 32.9528V38.8856H139.417C140.275 38.8856 140.669 39.6747 140.669 40.4638C140.669 41.2528 140.275 42.0419 139.417 42.0419H136.881V44.9082C138.252 45.9517 139.492 47.1583 140.571 48.5014C140.833 48.804 140.984 49.1866 141 49.5864C140.982 49.9765 140.814 50.3448 140.532 50.6148C140.249 50.8847 139.874 51.0357 139.484 51.0363C139.255 51.0316 139.031 50.9722 138.83 50.8633C138.63 50.7543 138.458 50.5989 138.33 50.4099C137.885 49.7881 137.401 49.1951 136.881 48.6346V60.729C136.816 61.1326 136.609 61.4999 136.298 61.7651C135.987 62.0302 135.592 62.1759 135.183 62.1759C134.774 62.1759 134.379 62.0302 134.068 61.7651C133.757 61.4999 133.55 61.1326 133.486 60.729V56.181L133.584 49.325C132.95 51.0073 132.143 52.6196 131.178 54.1363C131.012 54.4232 130.757 54.648 130.451 54.7765C130.146 54.905 129.807 54.9301 129.486 54.8479C129.165 54.7658 128.88 54.581 128.673 54.3217C128.467 54.0623 128.352 53.7426 128.344 53.4114C128.356 53.0825 128.458 52.7634 128.64 52.4891C130.689 49.2722 132.203 45.7439 133.123 42.0419H130.162ZM146.772 61.3218C143.673 61.3218 142.388 60.1678 142.388 57.5639V36.9337C142.388 34.3297 143.671 33.1767 146.772 33.1767H153.232C156.33 33.1767 157.615 34.3307 157.615 36.9337V57.5619C157.615 60.5288 155.967 61.3198 153.232 61.3198L146.772 61.3218ZM153.99 37.5255C153.99 36.7019 153.726 36.405 152.836 36.405H147.169C146.281 36.405 146.015 36.7009 146.015 37.5255V41.1512H153.991L153.99 37.5255ZM146.014 49.2254H153.99V44.3144H146.015L146.014 49.2254ZM152.836 58.0906C153.723 58.0906 153.99 57.7946 153.99 56.9701V52.3885H146.015V56.9701C146.015 57.8272 146.344 58.0906 147.169 58.0906H152.836Z" fill="#00521D"/>
<path d="M161.927 40.7607C161.553 40.6759 161.219 40.4666 160.98 40.1672C160.741 39.8678 160.611 39.4961 160.611 39.113C160.611 38.7299 160.741 38.3582 160.98 38.0588C161.219 37.7594 161.553 37.5501 161.927 37.4653H171.616C172 37.5378 172.347 37.7421 172.596 38.0429C172.846 38.3438 172.982 38.7222 172.982 39.113C172.982 39.5037 172.846 39.8822 172.596 40.1831C172.347 40.4839 172 40.6882 171.616 40.7607H161.927ZM165.519 61.5901C163.047 61.5901 162.223 60.6037 162.223 58.5906V54.5042C162.223 52.4941 163.048 51.5048 165.519 51.5048H168.778C171.217 51.5048 172.04 52.4911 172.04 54.5042V58.5906C172.04 60.8641 170.986 61.5901 168.778 61.5901H165.519ZM163.706 35.9454C163.521 35.928 163.342 35.8738 163.178 35.7861C163.015 35.6984 162.871 35.5789 162.754 35.4346C162.637 35.2904 162.551 35.1242 162.499 34.946C162.448 34.7678 162.433 34.5811 162.454 34.3968C162.454 33.6078 162.882 32.8473 163.706 32.8473H170.298C170.486 32.8593 170.669 32.9096 170.837 32.9952C171.005 33.0808 171.153 33.1999 171.273 33.345C171.394 33.4902 171.483 33.6584 171.535 33.8393C171.588 34.0201 171.603 34.2099 171.58 34.3968C171.601 34.5834 171.584 34.7723 171.531 34.9522C171.477 35.1321 171.388 35.2994 171.268 35.444C171.149 35.5886 171.001 35.7076 170.834 35.7937C170.667 35.8799 170.485 35.9315 170.298 35.9454H163.706ZM163.706 45.3718C163.521 45.3543 163.342 45.3 163.178 45.2122C163.015 45.1244 162.871 45.0048 162.754 44.8604C162.637 44.7161 162.551 44.5499 162.499 44.3716C162.448 44.1933 162.433 44.0065 162.454 43.8223C162.454 43.0332 162.882 42.2727 163.706 42.2727H170.298C170.486 42.2847 170.669 42.3351 170.837 42.4207C171.005 42.5062 171.153 42.6253 171.273 42.7705C171.394 42.9156 171.483 43.0838 171.535 43.2647C171.588 43.4456 171.603 43.6353 171.58 43.8223C171.601 44.0088 171.584 44.1978 171.531 44.3778C171.477 44.5578 171.388 44.7251 171.268 44.8698C171.149 45.0145 171.001 45.1335 170.834 45.2198C170.667 45.306 170.485 45.3577 170.298 45.3718H163.706ZM163.706 49.9849C163.521 49.9675 163.342 49.9133 163.178 49.8256C163.015 49.7379 162.871 49.6184 162.754 49.4741C162.637 49.3299 162.551 49.1637 162.499 48.9855C162.448 48.8073 162.433 48.6206 162.454 48.4363C162.454 47.6473 162.882 46.8868 163.706 46.8868H170.298C170.486 46.8988 170.669 46.9491 170.837 47.0347C171.005 47.1203 171.153 47.2394 171.273 47.3845C171.394 47.5297 171.483 47.6979 171.535 47.8788C171.588 48.0596 171.603 48.2494 171.58 48.4363C171.601 48.6229 171.584 48.8118 171.531 48.9917C171.477 49.1716 171.388 49.3389 171.268 49.4835C171.149 49.6281 171.001 49.7471 170.834 49.8332C170.667 49.9194 170.485 49.9709 170.298 49.9849H163.706ZM168.087 58.6183C168.615 58.6183 168.778 58.4535 168.778 57.8933V55.2233C168.778 54.6631 168.613 54.4658 168.087 54.4658H166.176C165.648 54.4658 165.485 54.6631 165.485 55.2233V57.8933C165.485 58.421 165.65 58.6183 166.176 58.6183H168.087ZM174.711 61.7499C174.505 61.8469 174.281 61.9029 174.053 61.9146C173.62 61.8937 173.212 61.7085 172.912 61.3968C172.612 61.0851 172.442 60.6705 172.438 60.2378C172.453 59.9374 172.554 59.6475 172.728 59.4027C172.903 59.1579 173.145 58.9684 173.424 58.8569C178.137 56.5499 180.082 52.9251 180.213 46.6264C180.213 45.7387 181.037 45.2751 181.89 45.2751C182.098 45.2518 182.309 45.2701 182.51 45.3289C182.71 45.3878 182.898 45.4861 183.06 45.618C183.223 45.7499 183.358 45.9128 183.456 46.0973C183.555 46.2818 183.617 46.4841 183.637 46.6925C183.624 48.1539 183.47 49.6107 183.175 51.0422C183.331 51.4035 183.508 51.7558 183.703 52.0976C184.954 51.1783 186.083 50.1041 187.064 48.9009C187.212 48.6883 187.41 48.5145 187.639 48.3943C187.869 48.2741 188.124 48.2111 188.383 48.2105C188.813 48.1996 189.231 48.3544 189.55 48.6428C189.869 48.9312 190.065 49.3311 190.097 49.76C190.073 50.1974 189.885 50.6097 189.57 50.914C188.335 52.2776 186.929 53.4743 185.385 54.4737C186.741 56.0021 188.388 57.2457 190.229 58.132C190.552 58.2649 190.829 58.4879 191.027 58.7743C191.226 59.0607 191.338 59.3983 191.35 59.7466C191.347 60.2117 191.163 60.6574 190.837 60.989C190.511 61.3205 190.068 61.5118 189.603 61.522C189.293 61.5192 188.988 61.4399 188.715 61.2912C185.897 59.845 183.527 57.6574 181.86 54.9639C180.333 57.983 177.808 60.3806 174.713 61.7499H174.711ZM175.37 47.018C175.136 47.1407 174.876 47.2082 174.612 47.2152C174.198 47.2075 173.805 47.0378 173.515 46.7427C173.225 46.4475 173.063 46.0506 173.063 45.6371C173.076 45.3316 173.176 45.0361 173.35 44.7851C173.525 44.5341 173.768 44.338 174.05 44.2197C178.465 42.0113 180.377 39.078 180.574 33.377C180.629 32.9603 180.835 32.5783 181.154 32.3041C181.472 32.03 181.881 31.8829 182.301 31.8909C182.721 31.899 183.123 32.0616 183.431 32.3478C183.739 32.634 183.931 33.0236 183.969 33.4421C183.945 34.8215 183.757 36.1932 183.41 37.5284C183.599 37.8807 183.808 38.2219 184.036 38.5503C185.179 37.5347 186.207 36.3962 187.101 35.1553C187.249 34.9125 187.457 34.7121 187.705 34.5738C187.954 34.4355 188.234 34.364 188.518 34.3663C188.922 34.3529 189.316 34.4964 189.617 34.7666C189.918 35.0368 190.103 35.4129 190.133 35.8162C190.12 36.2332 189.957 36.6315 189.672 36.9366C188.579 38.3595 187.305 39.6337 185.882 40.7271C187.109 41.7993 188.485 42.6874 189.968 43.3636C190.347 43.4939 190.667 43.7557 190.87 44.1015C191.072 44.4473 191.144 44.8543 191.073 45.2486C191.001 45.643 190.791 45.9987 190.48 46.2513C190.168 46.5038 189.777 46.6366 189.376 46.6254C189.055 46.6233 188.739 46.5441 188.454 46.3946C185.885 45.1714 183.673 43.3105 182.028 40.9895C180.492 43.6435 178.166 45.7512 175.373 47.018H175.37ZM176.751 48.3988C177.165 48.3799 177.57 48.5245 177.878 48.8013C178.186 49.0781 178.373 49.4649 178.398 49.8783C178.393 50.012 178.371 50.1445 178.333 50.2729C177.997 51.4831 177.486 52.6377 176.816 53.7004C176.664 53.9785 176.44 54.2107 176.167 54.3729C175.895 54.535 175.584 54.6213 175.267 54.6226C175.061 54.6305 174.855 54.5974 174.662 54.5253C174.469 54.4531 174.293 54.3433 174.142 54.2023C173.992 54.0612 173.871 53.8917 173.787 53.7036C173.703 53.5155 173.657 53.3126 173.652 53.1066C173.663 52.7673 173.766 52.4372 173.948 52.1509C174.478 51.3206 174.92 50.437 175.266 49.5144C175.358 49.1913 175.554 48.9075 175.824 48.7065C176.093 48.5055 176.421 48.3985 176.757 48.4018L176.751 48.3988ZM177.213 34.6562C177.609 34.6286 178.001 34.7579 178.303 35.0162C178.605 35.2745 178.793 35.6412 178.827 36.0371C178.822 36.1929 178.799 36.3476 178.761 36.4987C178.435 37.5706 177.981 38.5995 177.409 39.5633C177.251 39.8657 177.015 40.1202 176.726 40.2999C176.436 40.4797 176.103 40.5782 175.762 40.5851C175.382 40.6058 175.009 40.4752 174.725 40.2218C174.441 39.9684 174.269 39.6128 174.246 39.2328C174.257 38.8934 174.359 38.5632 174.542 38.2771C175.046 37.4701 175.455 36.6076 175.761 35.7067C175.861 35.3995 176.056 35.1322 176.318 34.9438C176.58 34.7554 176.896 34.6556 177.219 34.6592L177.213 34.6562Z" fill="#00521D"/>
<path d="M222.097 43.0963C222.503 43.164 222.871 43.3734 223.137 43.6873C223.403 44.0011 223.549 44.3992 223.549 44.8105C223.549 45.2219 223.403 45.6199 223.137 45.9338C222.871 46.2477 222.503 46.4571 222.097 46.5248H210.497V57.0046H220.812C221.217 57.0729 221.585 57.2825 221.85 57.5962C222.115 57.9099 222.261 58.3075 222.261 58.7184C222.261 59.1292 222.115 59.5268 221.85 59.8405C221.585 60.1542 221.217 60.3638 220.812 60.4321H196.852C196.453 60.3558 196.093 60.143 195.835 59.8302C195.576 59.5174 195.435 59.1242 195.435 58.7184C195.435 58.3125 195.576 57.9193 195.835 57.6065C196.093 57.2937 196.453 57.0809 196.852 57.0046H206.74V46.5248H195.335C194.936 46.448 194.577 46.2349 194.319 45.9221C194.061 45.6092 193.919 45.2162 193.919 44.8105C193.919 44.4049 194.061 44.0119 194.319 43.699C194.577 43.3862 194.936 43.1731 195.335 43.0963H206.74V33.6709C206.74 32.6845 207.696 32.1914 208.614 32.1914C209.57 32.1914 210.493 32.6845 210.493 33.6709V43.0963H222.097Z" fill="#00521D"/>
<path d="M233.938 39.6678C234.135 39.6794 234.327 39.7312 234.503 39.82C234.68 39.9087 234.836 40.0326 234.962 40.1839C235.089 40.3352 235.183 40.5108 235.239 40.6999C235.296 40.8889 235.313 41.0875 235.289 41.2834C235.31 41.4787 235.291 41.6762 235.234 41.8642C235.176 42.0521 235.082 42.2265 234.956 42.3772C234.83 42.5278 234.675 42.6515 234.5 42.741C234.325 42.8305 234.134 42.8839 233.938 42.898H232.125V60.8266C232.125 61.7498 231.237 62.244 230.35 62.244C229.462 62.244 228.574 61.7508 228.574 60.8266V42.898H226.602C226.408 42.8802 226.221 42.8241 226.049 42.7329C225.878 42.6418 225.727 42.5174 225.604 42.3671C225.481 42.2168 225.389 42.0436 225.334 41.8575C225.279 41.6715 225.262 41.4763 225.283 41.2834C225.259 41.09 225.275 40.8938 225.329 40.7066C225.383 40.5194 225.474 40.3451 225.597 40.1941C225.721 40.0432 225.873 39.9187 226.046 39.8283C226.218 39.7378 226.407 39.6832 226.602 39.6678H228.574V32.8128C228.574 31.8905 229.462 31.4319 230.35 31.4319C231.237 31.4319 232.125 31.8935 232.125 32.8128V39.6678H233.938ZM239.574 51.6646C238.948 55.6858 237.601 58.849 235.42 61.1561C235.261 61.3296 235.067 61.4687 234.852 61.565C234.637 61.6613 234.404 61.7128 234.169 61.7163C233.974 61.7257 233.779 61.6964 233.595 61.6302C233.412 61.5639 233.243 61.462 233.099 61.3302C232.955 61.1985 232.838 61.0395 232.756 60.8625C232.674 60.6855 232.627 60.494 232.619 60.2989C232.639 59.8253 232.839 59.3773 233.179 59.0473C234.989 56.999 236.128 54.4456 236.442 51.7307L234.531 51.7632C234.353 51.7586 234.179 51.7175 234.018 51.6425C233.857 51.5675 233.713 51.4602 233.596 51.3272C233.478 51.1942 233.389 51.0384 233.335 50.8696C233.28 50.7008 233.261 50.5225 233.278 50.3458C233.261 50.1659 233.279 49.9843 233.333 49.8118C233.387 49.6392 233.475 49.4793 233.592 49.3413C233.708 49.2034 233.852 49.0902 234.013 49.0086C234.174 48.9271 234.35 48.8787 234.531 48.8663L236.739 48.8338C236.773 48.242 236.805 47.6147 236.805 46.9883C236.807 46.7973 236.85 46.6088 236.929 46.4349C237.008 46.261 237.123 46.1055 237.265 45.9784C237.408 45.8512 237.575 45.7552 237.757 45.6964C237.939 45.6377 238.131 45.6175 238.321 45.6371C238.523 45.6122 238.727 45.6302 238.921 45.6899C239.115 45.7496 239.294 45.8496 239.447 45.9835C239.599 46.1173 239.722 46.282 239.806 46.4666C239.891 46.6511 239.935 46.8515 239.937 47.0544C239.937 47.6462 239.903 48.2075 239.871 48.7687L241.35 48.7351C243.526 48.7026 244.514 49.5597 244.514 51.5373C244.527 53.5886 244.383 55.6379 244.085 57.6674C243.625 60.4676 242.272 61.4904 240.362 61.4904C239.853 61.4913 239.346 61.4471 238.845 61.3583C238.51 61.2972 238.208 61.1167 237.996 60.85C237.783 60.5834 237.675 60.2488 237.691 59.9083C237.674 59.7214 237.695 59.533 237.753 59.3545C237.811 59.1759 237.904 59.0109 238.027 58.8693C238.15 58.7277 238.301 58.6125 238.47 58.5305C238.639 58.4486 238.822 58.4016 239.01 58.3924H239.175C239.471 58.4249 239.669 58.4584 239.834 58.4584C240.525 58.4584 240.79 58.2612 240.955 57.3044C241.209 55.6242 241.352 53.9289 241.383 52.2297C241.383 51.7366 241.284 51.6034 240.658 51.638L239.574 51.6646ZM245.341 37.987C243.711 41.4015 240.85 44.0738 237.333 45.4684C237.135 45.5777 236.916 45.6442 236.69 45.6639C236.465 45.6836 236.238 45.656 236.024 45.5827C235.81 45.5095 235.613 45.3923 235.447 45.2387C235.281 45.0851 235.149 44.8984 235.059 44.6907C234.969 44.4829 234.924 44.2587 234.926 44.0324C234.928 43.8062 234.977 43.5828 235.07 43.3766C235.164 43.1705 235.299 42.9862 235.468 42.8355C235.637 42.6848 235.835 42.571 236.051 42.5015C238.307 41.6332 240.233 40.0765 241.554 38.0522L237.204 38.0857C237.013 38.0804 236.826 38.0362 236.654 37.956C236.481 37.8757 236.327 37.761 236.201 37.6189C236.074 37.4768 235.978 37.3104 235.918 37.1298C235.858 36.9492 235.836 36.7582 235.852 36.5687C235.832 36.3812 235.851 36.1917 235.908 36.0118C235.964 35.832 236.057 35.6657 236.181 35.5235C236.305 35.3813 236.457 35.2662 236.627 35.1854C236.798 35.1045 236.983 35.0597 237.171 35.0537L242.741 35.0202C242.915 34.2704 243.047 33.5114 243.135 32.7467C243.195 32.3551 243.402 32.0009 243.713 31.756C244.025 31.5111 244.418 31.3938 244.812 31.4279C245.029 31.4064 245.248 31.429 245.456 31.4943C245.664 31.5595 245.857 31.6662 246.023 31.8077C246.189 31.9493 246.324 32.1229 246.421 32.3182C246.518 32.5134 246.575 32.7263 246.588 32.9439V33.1087C246.526 33.7387 246.428 34.3645 246.292 34.9827L250.378 34.9501C252.751 34.9176 253.673 36.2028 253.673 37.7513C253.663 39.1767 253.417 40.5906 252.948 41.9364C252.75 42.7171 252.287 43.4045 251.637 43.88C250.987 44.3556 250.192 44.5894 249.388 44.5413C248.571 44.5479 247.755 44.4818 246.95 44.344C246.573 44.2676 246.237 44.0587 246.002 43.7553C245.767 43.4519 245.649 43.0742 245.669 42.691C245.689 42.3077 245.846 41.9443 246.111 41.6669C246.376 41.3896 246.732 41.2167 247.114 41.1798C247.214 41.1743 247.314 41.1854 247.41 41.2124C247.875 41.32 248.35 41.3756 248.828 41.3781C249.257 41.3781 249.586 41.1808 249.814 40.5209C250.06 39.8557 250.194 39.154 250.208 38.4447C250.208 38.1153 250.076 37.9516 249.582 37.9516L245.341 37.987ZM250.78 51.6971C250.188 56.0153 248.867 58.8816 246.758 61.1886C246.589 61.381 246.381 61.5361 246.149 61.6439C245.916 61.7517 245.663 61.81 245.407 61.8149C245.01 61.8336 244.623 61.6953 244.327 61.43C244.032 61.1647 243.853 60.7938 243.829 60.3976C243.858 59.9461 244.058 59.5227 244.389 59.214C246.232 57.1387 247.364 54.5289 247.619 51.7652L246.301 51.7977C246.118 51.7952 245.939 51.7547 245.773 51.6787C245.607 51.6027 245.46 51.4929 245.339 51.3564C245.218 51.2199 245.127 51.0596 245.072 50.8859C245.017 50.7123 244.999 50.529 245.018 50.3478C245.001 50.1679 245.019 49.9862 245.073 49.8136C245.127 49.641 245.215 49.481 245.332 49.343C245.448 49.205 245.592 49.0919 245.753 49.0104C245.915 48.9288 246.091 48.8805 246.271 48.8683L247.918 48.8358C247.951 48.1769 247.984 47.517 247.984 46.7931C247.988 46.5994 248.032 46.4086 248.114 46.233C248.195 46.0574 248.313 45.9009 248.459 45.7735C248.605 45.6461 248.776 45.5507 248.961 45.4934C249.146 45.4361 249.341 45.4182 249.533 45.4408C249.732 45.42 249.933 45.4411 250.123 45.5028C250.313 45.5645 250.488 45.6653 250.637 45.7989C250.785 45.9325 250.905 46.0958 250.986 46.2782C251.068 46.4607 251.11 46.6583 251.111 46.8582C251.111 47.517 251.078 48.1404 251.045 48.7697L252.561 48.7361C254.571 48.7036 255.724 49.5933 255.724 51.5048C255.739 53.6794 255.574 55.8514 255.231 57.9988C254.802 60.5692 253.751 61.4914 251.705 61.4914C251.131 61.4966 250.557 61.4523 249.991 61.3593C249.651 61.2955 249.346 61.11 249.134 60.8376C248.921 60.5652 248.816 60.2246 248.837 59.8798C248.818 59.6976 248.835 59.5136 248.888 59.3384C248.941 59.1632 249.029 59.0003 249.145 58.8591C249.262 58.7179 249.405 58.6013 249.567 58.5161C249.729 58.4309 249.907 58.3788 250.089 58.3628H250.286C250.657 58.4244 251.031 58.4574 251.407 58.4614C251.801 58.4614 251.999 58.2641 252.132 57.5382C252.434 55.8189 252.589 54.0769 252.594 52.3313C252.594 51.7711 252.461 51.6409 251.868 51.6724L250.78 51.6971Z" fill="#00521D"/>
<path d="M286.908 42.7008C287.26 42.8487 287.562 43.0947 287.778 43.4094C287.994 43.7242 288.116 44.0945 288.127 44.4762C288.134 44.7131 288.094 44.949 288.008 45.1698C287.922 45.3906 287.792 45.5916 287.626 45.761C287.46 45.9303 287.262 46.0644 287.043 46.1551C286.824 46.2459 286.589 46.2914 286.352 46.289C285.948 46.2926 285.55 46.1906 285.198 45.9931C280.34 43.4337 275.994 40.0042 272.375 35.8753C268.749 40.1255 264.425 43.7257 259.588 46.5208C259.311 46.6939 258.991 46.7851 258.664 46.7842C258.209 46.7683 257.778 46.5781 257.459 46.253C257.14 45.9279 256.958 45.4927 256.951 45.0374C256.964 44.7069 257.066 44.3861 257.246 44.1085C257.426 43.8309 257.677 43.6067 257.973 43.4592C263.028 40.5333 267.443 36.6213 270.956 31.9556C271.142 31.7018 271.385 31.4951 271.666 31.3521C271.946 31.209 272.256 31.1337 272.571 31.132C273.024 31.1014 273.47 31.2494 273.815 31.5445C274.16 31.8395 274.376 32.258 274.416 32.7102C274.412 32.8902 274.379 33.0685 274.318 33.2379C277.86 37.1795 282.137 40.3937 286.908 42.7008ZM271.423 51.7307C270.439 53.6994 269.35 55.6136 268.16 57.4652C271.126 57.2344 274.093 57.0036 277.025 56.6081C276.563 56.1149 276.069 55.6523 275.644 55.2568C275.477 55.1203 275.34 54.9498 275.243 54.7567C275.147 54.5636 275.092 54.3521 275.083 54.1363C275.117 53.7025 275.319 53.2989 275.644 53.0102C275.97 52.7215 276.395 52.5701 276.83 52.5878C277.3 52.6043 277.752 52.7779 278.112 53.0809C280.164 54.78 282.031 56.6913 283.682 58.783C283.999 59.1518 284.184 59.6158 284.208 60.1017C284.188 60.5544 283.991 60.981 283.658 61.2892C283.326 61.5974 282.886 61.7625 282.433 61.7489C282.095 61.7432 281.762 61.6564 281.464 61.4957C281.166 61.3351 280.911 61.1053 280.72 60.8256C280.357 60.3325 279.931 59.8038 279.501 59.3097C274.044 60.2009 268.543 60.7936 263.022 61.085C262.791 61.085 262 61.1511 261.671 61.1511C261.451 61.1557 261.232 61.1153 261.028 61.0323C260.824 60.9493 260.639 60.8255 260.485 60.6684C260.33 60.5114 260.21 60.3245 260.13 60.1191C260.051 59.9138 260.014 59.6944 260.023 59.4744C260.017 59.2528 260.057 59.0324 260.14 58.8267C260.222 58.6209 260.346 58.434 260.502 58.2773C260.659 58.1206 260.846 57.9972 261.052 57.9148C261.257 57.8323 261.478 57.7925 261.699 57.7976L263.973 57.699C265.252 55.7867 266.408 53.7945 267.433 51.7346H260.644C260.441 51.7287 260.242 51.6816 260.057 51.5962C259.873 51.5109 259.709 51.389 259.573 51.238C259.437 51.087 259.334 50.9101 259.269 50.7179C259.204 50.5257 259.178 50.3223 259.194 50.12C259.175 49.917 259.199 49.7124 259.263 49.5189C259.327 49.3254 259.43 49.1472 259.566 48.9955C259.702 48.8438 259.868 48.7219 260.054 48.6374C260.239 48.5528 260.44 48.5076 260.644 48.5043H284.469C284.674 48.5049 284.876 48.5484 285.063 48.632C285.249 48.7156 285.417 48.8375 285.553 48.9897C285.69 49.142 285.793 49.3213 285.856 49.516C285.92 49.7106 285.941 49.9164 285.92 50.12C285.938 50.3229 285.915 50.5276 285.851 50.721C285.787 50.9145 285.683 51.0926 285.547 51.2442C285.411 51.3958 285.245 51.5176 285.059 51.602C284.874 51.6864 284.673 51.7315 284.469 51.7346L271.423 51.7307ZM277.717 42.535C277.922 42.5356 278.124 42.579 278.311 42.6627C278.498 42.7463 278.665 42.8682 278.802 43.0205C278.938 43.1728 279.041 43.3521 279.104 43.5468C279.167 43.7414 279.189 43.9472 279.167 44.1507C279.186 44.3535 279.162 44.5581 279.098 44.7515C279.034 44.9448 278.931 45.1229 278.795 45.2745C278.659 45.4261 278.493 45.5479 278.307 45.6324C278.122 45.7168 277.921 45.7621 277.717 45.7653H267.331C267.129 45.7593 266.929 45.7121 266.745 45.6267C266.561 45.5413 266.396 45.4194 266.261 45.2684C266.125 45.1174 266.022 44.9405 265.957 44.7484C265.892 44.5562 265.867 44.3529 265.882 44.1507C265.864 43.9478 265.887 43.7432 265.951 43.5498C266.015 43.3564 266.118 43.1782 266.254 43.0266C266.39 42.8749 266.556 42.7529 266.741 42.6684C266.927 42.5838 267.128 42.5384 267.331 42.535H277.717Z" fill="#00521D"/>
<path d="M289.468 60.9043C291.349 60.9043 292.904 59.478 292.904 57.4446C292.904 55.4264 291.349 54 289.468 54C287.555 54 286 55.4264 286 57.4446C286 59.478 287.555 60.9043 289.468 60.9043ZM289.468 60.1153C287.975 60.1153 286.902 59.0531 286.902 57.4446C286.902 55.8361 287.975 54.7891 289.468 54.7891C290.945 54.7891 292.018 55.8361 292.018 57.4446C292.018 59.0531 290.945 60.1153 289.468 60.1153ZM288.068 59.1289H289.017V58.0516H289.561L290.121 59.1289H291.116L290.354 57.7784C290.774 57.6115 290.992 57.2321 290.992 56.8376C290.992 56.0485 290.37 55.7147 289.577 55.7147H288.068V59.1289ZM289.017 57.3991V56.4127H289.406C289.81 56.4127 289.996 56.61 289.996 56.8983C289.996 57.2018 289.779 57.3991 289.374 57.3991H289.017Z" fill="#00521D"/>
</svg>
